<svg width="844" height="364" viewBox="0 0 844 364" fill="none" xmlns="http://www.w3.org/2000/svg">
<path d="M260.4 229.416V284.2H217.904V361H161.072V284.2H0.304001V229.416L161.072 2.59998H217.904V229.416H260.4ZM70.448 229.416H161.072V101.928L70.448 229.416ZM419.124 363.56C367.412 363.56 305.46 345.64 305.46 263.208V100.392C305.46 17.96 367.412 0.039978 419.124 0.039978C470.836 0.039978 532.788 17.96 532.788 100.392V263.208C532.788 345.64 470.836 363.56 419.124 363.56ZM419.124 308.776C458.548 308.776 475.956 292.904 475.956 247.848V115.752C475.956 70.696 458.548 54.824 419.124 54.824C379.7 54.824 361.78 70.696 361.78 115.752V247.848C361.78 292.904 379.7 308.776 419.124 308.776ZM843.9 229.416V284.2H801.404V361H744.572V284.2H583.804V229.416L744.572 2.59998H801.404V229.416H843.9ZM653.948 229.416H744.572V101.928L653.948 229.416Z" fill="#3AAFA9"/>
</svg>
