<svg width="80" height="80" viewBox="0 0 80 80" fill="none" xmlns="http://www.w3.org/2000/svg">
<path d="M16.0889 34.6222C22.4889 47.2 32.8 57.5111 45.3778 63.9111L55.1556 54.1333C56.4 52.8889 58.1333 52.5333 59.6889 53.0222C64.6667 54.6667 70 55.5556 75.5556 55.5556C76.7343 55.5556 77.8648 56.0238 78.6983 56.8573C79.5318 57.6908 80 58.8213 80 60V75.5556C80 76.7343 79.5318 77.8648 78.6983 78.6983C77.8648 79.5318 76.7343 80 75.5556 80C55.517 80 36.2991 72.0397 22.1297 57.8703C7.96029 43.7009 0 24.483 0 4.44444C0 3.2657 0.468252 2.13524 1.30175 1.30175C2.13524 0.468252 3.2657 0 4.44444 0H20C21.1787 0 22.3092 0.468252 23.1427 1.30175C23.9762 2.13524 24.4444 3.2657 24.4444 4.44444C24.4444 10 25.3333 15.3333 26.9778 20.3111C27.4667 21.8667 27.1111 23.6 25.8667 24.8444L16.0889 34.6222Z" fill="#2B7A77"/>
</svg>
