<svg width="40" height="40" viewBox="0 0 40 40" fill="none" xmlns="http://www.w3.org/2000/svg">
<path d="M40 2.33334C40 1.66667 39.7778 1.11111 39.3333 0.666668C38.8889 0.222224 38.3333 1.6756e-06 37.6667 1.64646e-06L28.6667 1.25306e-06C28.1481 1.23039e-06 27.6941 0.166668 27.3044 0.500001C26.9148 0.833334 26.6652 1.25926 26.5556 1.77778L25 9.44445C24.9259 9.96296 24.9726 10.4911 25.14 11.0289C25.3074 11.5667 25.557 12.0015 25.8889 12.3333L31.1111 17.5556C29.4074 20.3704 27.3889 22.9541 25.0556 25.3067C22.7222 27.6593 20.2222 29.6126 17.5556 31.1667L12.1111 25.7778C11.7778 25.4444 11.3978 25.2319 10.9711 25.14C10.5444 25.0481 10.0726 25.0385 9.55556 25.1111L1.77778 26.5556C1.25926 26.6296 0.833332 26.8704 0.499999 27.2778C0.166665 27.6852 -1.23039e-06 28.1481 -1.25306e-06 28.6667L-1.64646e-06 37.6667C-1.6756e-06 38.3333 0.22222 38.8889 0.666665 39.3333C1.11111 39.7778 1.66667 40 2.33333 40C7.11111 40 11.7689 38.9348 16.3067 36.8044C20.8444 34.6741 24.863 31.8593 28.3622 28.36C31.8615 24.8607 34.6763 20.8422 36.8067 16.3044C38.937 11.7667 40.0015 7.10963 40 2.33334ZM13.3333 33.2778C11.8889 33.9074 10.4259 34.3889 8.94444 34.7222C7.46296 35.0556 5.96296 35.3148 4.44444 35.5L4.44444 30.5556L9.66667 29.6111L13.3333 33.2778ZM33.2222 13.3889L29.5 9.66667L30.5556 4.44445L35.4444 4.44445C35.3333 5.96296 35.0926 7.47259 34.7222 8.97334C34.3519 10.4741 33.8519 11.9459 33.2222 13.3889Z" fill="#52585B"/>
</svg>
