<svg width="55" height="55" viewBox="0 0 55 55" fill="none" xmlns="http://www.w3.org/2000/svg">
<path fill-rule="evenodd" clip-rule="evenodd" d="M55 0H0V55H55V0ZM34.3152 18.2575C34.603 18.0652 34.9413 17.9626 35.2875 17.9626C35.7516 17.9626 36.1967 18.147 36.5249 18.4751C36.8531 18.8033 37.0375 19.2485 37.0375 19.7126C37.0375 20.0587 36.9348 20.397 36.7425 20.6848C36.5502 20.9726 36.2769 21.1969 35.9572 21.3294C35.6374 21.4618 35.2855 21.4965 34.9461 21.429C34.6066 21.3614 34.2948 21.1948 34.05 20.95C33.8053 20.7053 33.6386 20.3935 33.5711 20.054C33.5036 19.7145 33.5382 19.3627 33.6707 19.0429C33.8031 18.7231 34.0274 18.4498 34.3152 18.2575ZM41.325 17.948C41.7408 19.0846 41.9674 20.2818 41.9958 21.4917C42.0833 23.0376 42.0833 23.5334 42.0833 27.5001C42.0833 29.9422 42.0501 31.0688 42.0246 31.9347C42.0087 32.4753 41.9958 32.9143 41.9958 33.5084C41.9674 34.7184 41.7408 35.9155 41.325 37.0522C40.9579 38.0266 40.3803 38.908 39.6333 39.6334C38.9112 40.3809 38.0285 40.9544 37.052 41.3105C35.9184 41.739 34.7199 41.9708 33.5083 41.9959C31.9625 42.0834 31.4666 42.0834 27.5 42.0834C23.5333 42.0834 23.0375 42.0834 21.4916 41.9959C20.28 41.9708 19.0815 41.739 17.9479 41.3105C16.9732 40.9508 16.0913 40.3778 15.3666 39.6334C14.6191 38.9113 14.0456 38.0286 13.6895 37.0522C13.261 35.9185 13.0292 34.7201 13.0041 33.5084C12.9166 31.9626 12.9166 31.4667 12.9166 27.5001C12.9166 23.5334 12.9166 23.0376 13.0041 21.4917C13.0292 20.2801 13.261 19.0816 13.6895 17.948C14.0456 16.9716 14.6191 16.0889 15.3666 15.3667C16.0913 14.6224 16.9732 14.0494 17.9479 13.6897C19.0815 13.2611 20.28 13.0293 21.4916 13.0042C23.0375 12.9167 23.5333 12.9167 27.5 12.9167C31.4666 12.9167 31.9625 12.9167 33.5083 13.0042C34.7199 13.0293 35.9184 13.2611 37.052 13.6897C38.0285 14.0458 38.9112 14.6192 39.6333 15.3667C40.377 16.0949 40.9541 16.9755 41.325 17.948ZM38.875 36.0459C39.1925 35.1763 39.3602 34.2591 39.3708 33.3334C39.4437 31.8751 39.4583 31.3355 39.4583 27.5001C39.4583 23.6647 39.4437 23.1251 39.3708 21.6667C39.3668 20.7214 39.1991 19.7839 38.875 18.8959C38.6325 18.2874 38.2591 17.7397 37.7812 17.2917C37.3033 16.7709 36.7085 16.371 36.0458 16.1251C35.1762 15.8075 34.259 15.6399 33.3333 15.6292C31.875 15.5417 31.3354 15.5417 27.5 15.5417C25.1275 15.5417 24.0161 15.5752 23.1683 15.6008C22.6455 15.6165 22.2229 15.6292 21.6666 15.6292C20.7216 15.6367 19.7847 15.8043 18.8958 16.1251C18.2823 16.3921 17.7347 16.7903 17.2916 17.2917C16.7903 17.7317 16.3963 18.2804 16.1395 18.8959C15.8084 19.7825 15.6357 20.7204 15.6291 21.6667C15.5416 23.1251 15.5416 23.6647 15.5416 27.5001C15.5416 29.8726 15.5751 30.984 15.6006 31.8318C15.6164 32.3546 15.6291 32.7772 15.6291 33.3334C15.6589 34.2842 15.8564 35.2222 16.2125 36.1042C16.4383 36.7389 16.8076 37.3128 17.2916 37.7813C17.7457 38.2521 18.2917 38.6244 18.8958 38.8751C19.8067 39.1826 20.7638 39.3306 21.725 39.3126C23.1833 39.4001 23.7229 39.4001 27.5583 39.4001C31.3937 39.4001 31.9333 39.3855 33.3916 39.3126C34.3173 39.302 35.2345 39.1343 36.1041 38.8167C36.7359 38.5782 37.3082 38.205 37.7812 37.723C38.2681 37.254 38.6421 36.6806 38.875 36.0459ZM23.3476 21.2867C24.5759 20.4629 26.0209 20.0217 27.5 20.0188C28.4842 20.015 29.4594 20.2058 30.3697 20.5802C31.2799 20.9546 32.1071 21.5053 32.8037 22.2006C33.5004 22.8958 34.0527 23.722 34.4288 24.6315C34.805 25.541 34.9977 26.5159 34.9958 27.5001C34.9958 28.9791 34.5574 30.425 33.736 31.6549C32.9146 32.8849 31.747 33.8438 30.3808 34.4104C29.0147 34.9771 27.5112 35.1261 26.0604 34.8386C24.6096 34.5511 23.2765 33.8401 22.2297 32.7953C21.1828 31.7504 20.4691 30.4188 20.1788 28.9685C19.8885 27.5183 20.0346 26.0145 20.5986 24.6472C21.1626 23.2799 22.1192 22.1105 23.3476 21.2867ZM24.802 31.5379C25.6006 32.0715 26.5395 32.3563 27.5 32.3563C28.1377 32.3563 28.7692 32.2307 29.3584 31.9867C29.9476 31.7426 30.4829 31.3849 30.9338 30.934C31.3848 30.483 31.7425 29.9477 31.9865 29.3585C32.2306 28.7693 32.3562 28.1378 32.3562 27.5001C32.3562 26.5396 32.0714 25.6007 31.5378 24.8021C31.0042 24.0035 30.2457 23.381 29.3584 23.0135C28.471 22.6459 27.4946 22.5498 26.5526 22.7371C25.6105 22.9245 24.7452 23.387 24.0661 24.0662C23.3869 24.7454 22.9244 25.6107 22.737 26.5527C22.5496 27.4947 22.6458 28.4711 23.0134 29.3585C23.3809 30.2459 24.0034 31.0043 24.802 31.5379Z" fill="#3AAFA9"/>
</svg>
