<svg width="55" height="55" viewBox="0 0 55 55" fill="none" xmlns="http://www.w3.org/2000/svg">
<path fill-rule="evenodd" clip-rule="evenodd" d="M55 0H0V55H55V0ZM34.3152 18.2575C34.603 18.0652 34.9413 17.9626 35.2875 17.9626C35.7516 17.9626 36.1967 18.1469 36.5249 18.4752C36.853 18.8033 37.0375 19.2484 37.0375 19.7126C37.0375 20.0587 36.9348 20.397 36.7426 20.6848C36.5503 20.9726 36.277 21.1969 35.9572 21.3294C35.6373 21.4618 35.2855 21.4965 34.946 21.429C34.6066 21.3614 34.2948 21.1948 34.05 20.95C33.8053 20.7053 33.6385 20.3935 33.571 20.054C33.5035 19.7145 33.5382 19.3627 33.6707 19.0429C33.8031 18.7231 34.0275 18.4498 34.3152 18.2575ZM41.325 17.948C41.7408 19.0846 41.9674 20.2818 41.9958 21.4918C42.0833 23.0376 42.0833 23.5334 42.0833 27.5001C42.0833 29.9422 42.05 31.0688 42.0247 31.9347C42.0088 32.4753 41.9958 32.9143 41.9958 33.5084C41.9674 34.7184 41.7408 35.9155 41.325 37.0522C40.958 38.0266 40.3804 38.908 39.6333 39.6334C38.9111 40.3809 38.0284 40.9544 37.052 41.3105C35.9185 41.739 34.72 41.9708 33.5083 41.9959C31.9624 42.0834 31.4667 42.0834 27.5 42.0834C23.5333 42.0834 23.0375 42.0834 21.4916 41.9959C20.28 41.9708 19.0815 41.739 17.9479 41.3105C16.9733 40.9508 16.0913 40.3778 15.3666 39.6334C14.6191 38.9113 14.0457 38.0286 13.6896 37.0522C13.261 35.9185 13.0292 34.7201 13.0042 33.5084C12.9166 31.9626 12.9166 31.4667 12.9166 27.5001C12.9166 23.5334 12.9166 23.0376 13.0042 21.4918C13.0292 20.2801 13.261 19.0816 13.6896 17.948C14.0457 16.9716 14.6191 16.0889 15.3666 15.3668C16.0913 14.6223 16.9733 14.0493 17.9479 13.6897C19.0815 13.2611 20.28 13.0294 21.4916 13.0042C23.0375 12.9167 23.5333 12.9167 27.5 12.9167C31.4667 12.9167 31.9624 12.9167 33.5083 13.0042C34.72 13.0294 35.9185 13.2611 37.052 13.6897C38.0284 14.0457 38.9111 14.6192 39.6333 15.3668C40.3771 16.0948 40.9541 16.9755 41.325 17.948ZM38.875 36.0459C39.1925 35.1763 39.3602 34.2591 39.3708 33.3334C39.4437 31.8751 39.4583 31.3355 39.4583 27.5001C39.4583 23.6647 39.4437 23.1251 39.3708 21.6667C39.3668 20.7214 39.1991 19.7839 38.875 18.8959C38.6326 18.2874 38.2592 17.7397 37.7812 17.2917C37.3033 16.7709 36.7085 16.371 36.0458 16.1251C35.1761 15.8075 34.259 15.6399 33.3333 15.6292C31.875 15.5417 31.3353 15.5417 27.5 15.5417C25.1276 15.5417 24.0161 15.5752 23.1683 15.6008C22.6455 15.6165 22.2229 15.6292 21.6666 15.6292C20.7217 15.6367 19.7847 15.8043 18.8958 16.1251C18.2822 16.3921 17.7347 16.7903 17.2916 17.2917C16.7904 17.7317 16.3962 18.2804 16.1395 18.8959C15.8085 19.7825 15.6356 20.7204 15.6292 21.6667C15.5416 23.1251 15.5416 23.6647 15.5416 27.5001C15.5416 29.8726 15.5752 30.984 15.6007 31.8318C15.6165 32.3546 15.6292 32.7772 15.6292 33.3334C15.6589 34.2841 15.8564 35.2222 16.2124 36.1042C16.4382 36.7389 16.8076 37.3128 17.2916 37.7813C17.7457 38.2521 18.2917 38.6244 18.8958 38.8751C19.8066 39.1826 20.7638 39.3306 21.725 39.3126C23.1833 39.4001 23.7229 39.4001 27.5583 39.4001C31.3937 39.4001 31.9333 39.3855 33.3916 39.3126C34.3174 39.302 35.2345 39.1343 36.1041 38.8167C36.736 38.5782 37.3082 38.205 37.7812 37.723C38.2681 37.254 38.6421 36.6806 38.875 36.0459ZM23.3475 21.2867C24.5759 20.4629 26.0209 20.0217 27.5 20.0188C28.4841 20.015 29.4595 20.2057 30.3696 20.5802C31.2799 20.9546 32.1071 21.5053 32.8037 22.2006C33.5004 22.8958 34.0526 23.722 34.4288 24.6315C34.8051 25.541 34.9977 26.5159 34.9958 27.5001C34.9958 28.9791 34.5574 30.425 33.736 31.6549C32.9146 32.8849 31.7471 33.8438 30.3809 34.4105C29.0146 34.9771 27.5112 35.1261 26.0604 34.8386C24.6096 34.5511 23.2765 33.8401 22.2296 32.7953C21.1829 31.7505 20.4691 30.4188 20.1788 28.9685C19.8885 27.5182 20.0345 26.0145 20.5986 24.6472C21.1626 23.2799 22.1193 22.1105 23.3475 21.2867ZM24.802 31.5379C25.6006 32.0715 26.5394 32.3563 27.5 32.3563C28.1377 32.3563 28.7692 32.2307 29.3584 31.9867C29.9475 31.7426 30.4829 31.3849 30.9338 30.934C31.3848 30.483 31.7426 29.9477 31.9866 29.3585C32.2306 28.7693 32.3562 28.1378 32.3562 27.5001C32.3562 26.5396 32.0714 25.6007 31.5378 24.8021C31.0042 24.0035 30.2457 23.381 29.3584 23.0135C28.4709 22.6459 27.4946 22.5498 26.5525 22.7372C25.6105 22.9245 24.7452 23.387 24.066 24.0662C23.387 24.7454 22.9244 25.6107 22.7371 26.5527C22.5497 27.4947 22.6458 28.4711 23.0134 29.3585C23.381 30.2458 24.0034 31.0043 24.802 31.5379Z" fill="black"/>
</svg>
