<svg width="77" height="80" viewBox="0 0 77 80" fill="none" xmlns="http://www.w3.org/2000/svg">
<path d="M8.00001 80C5.80001 80 3.91601 79.216 2.34801 77.648C0.780006 76.08 -0.00265988 74.1973 6.79117e-06 72V8.00001C6.79117e-06 5.80001 0.784006 3.91601 2.35201 2.34801C3.92001 0.780006 5.80267 -0.00265988 8.00001 6.79117e-06H40L64 24V40H56V28H36V8.00001H8.00001V72H32V80H8.00001ZM57.2 50.1L61.5 54.4L46 69.8V74H50.2L65.7 58.6L69.9 62.8L52.7 80H40V67.3L57.2 50.1ZM69.9 62.8L57.2 50.1L63 44.3C63.7333 43.5667 64.6667 43.2 65.8 43.2C66.9333 43.2 67.8667 43.5667 68.6 44.3L75.7 51.4C76.4333 52.1333 76.8 53.0667 76.8 54.2C76.8 55.3333 76.4333 56.2667 75.7 57L69.9 62.8Z" fill="#2B7A77"/>
</svg>
