<?xml version="1.0" encoding="UTF-8"?>
<!DOCTYPE svg PUBLIC "-//W3C//DTD SVG 1.1//EN" "http://www.w3.org/Graphics/SVG/1.1/DTD/svg11.dtd">
<!-- Creator: CorelDRAW 2020 (64-Bit) -->
<svg xmlns="http://www.w3.org/2000/svg" xml:space="preserve" width="749.705mm" height="113.943mm" version="1.1" style="shape-rendering:geometricPrecision; text-rendering:geometricPrecision; image-rendering:optimizeQuality; fill-rule:evenodd; clip-rule:evenodd"
viewBox="0 0 306434.09 46573.05"
 xmlns:xlink="http://www.w3.org/1999/xlink"
 xmlns:xodm="http://www.corel.com/coreldraw/odm/2003">
 <defs>
  <style type="text/css">
   <![CDATA[
    .str0 {stroke:white;stroke-width:240.99;stroke-miterlimit:22.9256}
    .fil20 {fill:none;fill-rule:nonzero}
    .fil19 {fill:none;fill-rule:nonzero}
    .fil1 {fill:black}
    .fil4 {fill:#4C4C4C}
    .fil7 {fill:#A9A8A8}
    .fil2 {fill:black;fill-rule:nonzero}
    .fil21 {fill:#17252A;fill-rule:nonzero}
    .fil17 {fill:#272727;fill-rule:nonzero}
    .fil9 {fill:#2C2C2C;fill-rule:nonzero}
    .fil5 {fill:#2D2C2C;fill-rule:nonzero}
    .fil15 {fill:#323232;fill-rule:nonzero}
    .fil18 {fill:#999999;fill-rule:nonzero;fill-opacity:0.000000}
    .fil0 {fill:black;fill-rule:nonzero;fill-opacity:0.200000}
    .fil16 {fill:#C4C4C4;fill-rule:nonzero;fill-opacity:0.200000}
    .fil11 {fill:url(#id2)}
    .fil12 {fill:url(#id3);fill-rule:nonzero}
    .fil6 {fill:url(#id4);fill-rule:nonzero}
    .fil10 {fill:url(#id5);fill-rule:nonzero}
    .fil13 {fill:url(#id6);fill-rule:nonzero}
    .fil8 {fill:url(#id7);fill-rule:nonzero}
    .fil3 {fill:url(#id8);fill-rule:nonzero}
    .fil14 {fill:url(#id9);fill-rule:nonzero}
   ]]>
  </style>
    <clipPath id="id0" style="clip-rule:nonzero">
     <path d="M68690.6 26993.65c501.03,-642.21 547.83,-1403.37 445.4,-2075.66 -56.37,-366.15 305.7,-558.38 486.73,-235.27 447.9,800.52 629.66,1475.88 677.32,1847.09 30.16,390.26 14.31,637.18 -30.94,995.61 -20.64,164.03 -647.16,1055.69 -602.69,1273.55 45.25,217.94 -102.43,1708.41 -100.02,1934.32 1.55,225.87 -982.24,1881.75 -3497.22,3440.12 -2089.6,1294.48 -5063.83,2104.56 -5367.61,2140.61 -303.73,36.09 -575.22,-986.82 -793.57,-1048.38 -571.34,-161 -2285.34,421 -2923.35,564.84 -744.48,167.71 -2481.42,553.96 -4362.27,264.94 -2326.3,-357.57 -2676.84,-631.75 -4793.41,-1853.27 -1341.28,-774.19 -2289.15,-2205.97 -2676.51,-3071.43 -104.84,-234.09 108.32,-434.86 349.76,-348.21 1476.53,529.56 4519.06,1705.3 7976.35,2146.45 5137.28,655.45 9265.72,-1691.85 9857.24,-2029.31 2486.44,-1418.69 3786.52,-1933.83 5354.77,-3946.01z"/>
    </clipPath>
    <clipPath id="id1" style="clip-rule:nonzero">
     <path d="M68690.6 26993.65c501.03,-642.21 547.83,-1403.37 445.4,-2075.66 -56.37,-366.15 305.7,-558.38 486.73,-235.27 447.9,800.52 629.66,1475.88 677.32,1847.09 30.16,390.26 14.31,637.18 -30.94,995.61 -20.64,164.03 -647.16,1055.69 -602.69,1273.55 45.25,217.94 -102.43,1708.41 -100.02,1934.32 1.55,225.87 -982.24,1881.75 -3497.22,3440.12 -2089.6,1294.48 -5063.83,2104.56 -5367.61,2140.61 -303.73,36.09 -575.22,-986.82 -793.57,-1048.38 -571.34,-161 -2285.34,421 -2923.35,564.84 -744.48,167.71 -2481.42,553.96 -4362.27,264.94 -2326.3,-357.57 -2676.84,-631.75 -4793.41,-1853.27 -1341.28,-774.19 -2289.15,-2205.97 -2676.51,-3071.43 -104.84,-234.09 108.32,-434.86 349.76,-348.21 1476.53,529.56 4519.06,1705.3 7976.35,2146.45 5137.28,655.45 9265.72,-1691.85 9857.24,-2029.31 2486.44,-1418.69 3786.52,-1933.83 5354.77,-3946.01z"/>
    </clipPath>
  <linearGradient id="id2" gradientUnits="userSpaceOnUse" x1="40063.99" y1="40420.86" x2="72083.42" y2="3895">
   <stop offset="0" style="stop-opacity:1; stop-color:#DEF2F1"/>
   <stop offset="0.729412" style="stop-opacity:1; stop-color:#EEF8F8"/>
   <stop offset="1" style="stop-opacity:1; stop-color:white"/>
  </linearGradient>
  <linearGradient id="id3" gradientUnits="userSpaceOnUse" x1="44226.68" y1="-5345.82" x2="26132.76" y2="9742.76">
   <stop offset="0" style="stop-opacity:1; stop-color:#E8EAE9"/>
   <stop offset="0.501961" style="stop-opacity:1; stop-color:#707072"/>
   <stop offset="1" style="stop-opacity:1; stop-color:#2F3032"/>
  </linearGradient>
  <linearGradient id="id4" gradientUnits="userSpaceOnUse" x1="15557.71" y1="107057.01" x2="15930.25" y2="101688.81">
   <stop offset="0" style="stop-opacity:1; stop-color:#AAAAAA"/>
   <stop offset="1" style="stop-opacity:1; stop-color:#C2C2C2"/>
  </linearGradient>
  <linearGradient id="id5" gradientUnits="userSpaceOnUse" xlink:href="#id4" x1="2760.78" y1="65246.36" x2="3081.64" y2="60888.57">
  </linearGradient>
  <linearGradient id="id6" gradientUnits="userSpaceOnUse" xlink:href="#id3" x1="13698.7" y1="45973.96" x2="30863.96" y2="17719.63">
  </linearGradient>
  <linearGradient id="id7" gradientUnits="userSpaceOnUse" x1="447.42" y1="64162.6" x2="762.7" y2="59628.55">
   <stop offset="0" style="stop-opacity:1; stop-color:#3F3F3F"/>
   <stop offset="1" style="stop-opacity:1; stop-color:#5C5C5C"/>
  </linearGradient>
  <linearGradient id="id8" gradientUnits="userSpaceOnUse" xlink:href="#id7" x1="16516.28" y1="106456.63" x2="16908.93" y2="101048.54">
  </linearGradient>
  <linearGradient id="id9" gradientUnits="userSpaceOnUse" xlink:href="#id3" x1="7183.52" y1="16932.36" x2="17029.6" y2="3354.28">
  </linearGradient>
 </defs>
 <g id="Слой_x0020_1">
  <metadata id="CorelCorpID_0Corel-Layer"/>
  <g id="_1411314352928">
   <g filter="url(#filter0_f_3_8)">
    <path class="fil0" d="M57896.85 45386.19c3507.35,-962.95 9917.08,-3674.61 12248.41,-5742.79 2682.23,-2158.64 -2701.32,-4786.54 -3338.18,-5178.03 -636.73,-391.65 -31997.23,-16954.72 -37474.91,-19533.95 -5477.76,-2579.19 -23149.78,2120.25 -27457.2,4371.39 -3510.99,1834.91 -1098.9,3256.92 -646.79,3643.91 452.15,386.83 26534.35,15808.98 35929.72,20552.32 7115.17,3592.13 13854.43,3777.16 20738.95,1887.15z"/>
   </g>
   <path class="fil1" d="M33188.34 28223.59l3554.93 -1540.87 0.9 1.96c22.69,-10.3 45.7,-20.36 68.87,-30.08 2116.78,-886.43 5048.42,1317.94 6548.13,4923.84 1499.67,3605.9 999.45,7247.73 -1117.29,8134.16 -28.94,12.14 -58.04,23.63 -87.27,34.62l-3428.63 1488.34 -1775.89 -4171.31c-477.78,-667.72 -906.13,-1433.45 -1256.3,-2275.49 -323.03,-776.56 -553.27,-1554.8 -694.57,-2306.76l-1812.88 -4258.41z"/>
   <ellipse class="fil2" transform="matrix(-1.03739 0.434454 0.4323 1.03941 36004.2 34716.2)" rx="3694.56" ry="6276.48"/>
   <g filter="url(#filter1_i_3_8)">
    <path class="fil3" d="M33009.52 35920.8c-1123.95,-2702.38 -748.03,-5432.11 839.59,-6097 1587.63,-664.9 3785.79,986.82 4909.74,3689.2 1123.95,2702.38 748.03,5432.11 -839.59,6097 -1587.63,664.9 -3785.79,-986.82 -4909.74,-3689.2z"/>
   </g>
   <g filter="url(#filter2_di_3_8)">
    <path class="fil4" d="M36105.96 30946.94c442.58,276.72 875.72,681.7 1263.21,1187.63l-948.97 1556.4c-117.39,-144.9 -244.34,-266.29 -374.73,-359.49l60.49 -2384.55zm-135.7 5350.15c193.58,82.07 386.01,97.08 557.11,30.04l1269.83 2342.2c-70.22,43.61 -143.88,81.83 -221.01,114.12 -506.63,212.22 -1088.11,140.52 -1665.08,-155.53l59.14 -2330.84zm-238.83 2231.35l59.1 -2326.46c-153.69,-97.48 -304.27,-234.78 -441.6,-404.16l-930.09 1525.42c402.61,520.45 853.53,932.29 1312.59,1205.21zm134.64 -5306.26l60.37 -2380.21c-599.01,-325.72 -1206.23,-411.72 -1732.65,-191.29 -147.11,61.64 -281.58,144.45 -403.22,246.27l1281.56 2363.74c47.01,-39.16 98.91,-71.16 155.65,-94.87 194.31,-81.38 417,-55.1 638.29,56.37zm-2370.04 2495.35c223.62,537.82 498.42,1025.4 805.22,1448.57l930.33 -1525.78c-103.82,-151.23 -197.09,-322 -274.51,-508.23 -9.44,-22.64 -18.52,-45.37 -27.34,-67.97l-1543.77 373.34c34.54,93.32 71.24,186.79 110.07,280.07zm3041.47 -1869l948.73 -1556.03c299.77,417.49 568.31,896.77 787.68,1424.13 44.51,107.05 86.16,214.06 125.07,321.02l-1563.55 378.04c-7.85,-19.99 -15.94,-40.1 -24.28,-60.08 -77.25,-185.73 -170.16,-356.09 -273.65,-507.08zm-3213.06 1416.16c-256.97,-750.12 -376,-1489.77 -366.15,-2153.57l1790.73 1098.86c6.21,214.14 45.57,445.69 120.01,681.21l-1544.59 373.51zm3572.22 -676.18c89.31,279.82 129.2,554.29 122.74,800.76l1787.17 1096.73c32.99,-692.69 -79.05,-1477.39 -347.06,-2275.41l-1562.86 377.92zm1895.61 2102.6l-1789.71 -1098.16c-39.81,279.41 -147.51,507.53 -317.43,642.95l1261.98 2327.73c481.58,-382.66 769.78,-1053.85 845.15,-1872.52zm-5826.5 -3789.3l1788.28 1097.34c18.8,-236.17 82.73,-441.89 188.47,-595.12l-1289.53 -2378.46c-407.55,424.76 -641.93,1089.33 -687.21,1876.24z"/>
   </g>
   <path class="fil1" d="M33192.3 28149.4l3554.93 -1540.83 0.41 0.86c21.91,-9.93 43.98,-19.54 66.3,-28.82 2116.74,-886.56 5048.42,1317.94 6548.09,4923.84 1499.67,3605.78 999.41,7247.61 -1117.33,8134.12 -21.38,8.99 -42.8,17.53 -64.34,25.91l-3448.33 1496.89 -1771.11 -4160.11c-481.05,-670.29 -912.1,-1439.74 -1264.27,-2286.49 -324.95,-781.18 -555.89,-1564.04 -697.02,-2320.21l-1807.32 -4245.17z"/>
   <path class="fil5" d="M32130.69 36320.27c1498.48,3603.08 4429.31,5805.25 6546.04,4918.77 2116.78,-886.47 2617.98,-4525.93 1119.41,-8128.97 -1498.56,-3603.04 -4514.28,-5999.27 -6631.06,-5112.8 -2116.74,886.47 -2532.92,4719.96 -1034.4,8323z"/>
   <g filter="url(#filter3_i_3_8)">
    <path class="fil6" d="M33238.45 35875.76c-1046.62,-2619.86 -693.84,-5262.24 788.01,-5901.95 1481.84,-639.72 3531.59,965.48 4578.25,3585.34 1046.66,2619.86 693.84,5262.28 -788.01,5901.95 -1481.84,639.72 -3531.59,-965.48 -4578.25,-3585.34z"/>
   </g>
   <g filter="url(#filter4_di_3_8)">
    <path class="fil7" d="M34036.15 35813.35c735.2,1649.43 2007.4,2687.46 3024.1,2493.31l-740.27 -1815.25c-431.92,-22.85 -921.95,-438.7 -1249.52,-1074.7l-1034.32 396.64zm-202.29 -508.88c-585.4,-1668.15 -409.92,-3297.71 398.81,-3931.95l739.98 1814.48c-282.44,351.52 -332.39,1023.89 -110.81,1723.2l-1027.98 394.27zm3002.89 -1151.71c-338.85,-745.79 -900.82,-1231.9 -1377.29,-1216.41l-734.95 -1802.46c1054.34,-251.01 2404.66,861.09 3141.61,2624.07l-1029.37 394.8zm183.97 515.91l1035.91 -397.21c534.92,1647.55 328.67,3229.57 -495.23,3819.59l-735.36 -1803.36c295.68,-313.14 372.61,-943.21 194.68,-1619.02z"/>
   </g>
   <path class="fil1" d="M7124.74 14270.57l3116.43 -722.37 0.37 2c19.91,-4.95 39.77,-9.65 59.76,-13.98 1850.98,-404.9 3904.97,1822.45 4587.77,4974.97 682.76,3152.57 -264.41,6036.43 -2115.43,6441.33 -27.02,5.97 -54.08,11.24 -81.18,16.02l-3000.15 697.11 -822.18 -3649.06c-289.76,-614.54 -524.54,-1301.47 -684.31,-2039.04 -147.31,-680.35 -218.8,-1348.15 -221.54,-1981.16l-839.55 -3725.82z"/>
   <ellipse class="fil2" transform="matrix(-1.09841 0.240274 0.238341 1.10052 8444.18 19964.2)" rx="3051.32" ry="5182.74"/>
   <g filter="url(#filter5_i_3_8)">
    <path class="fil8" d="M5834.39 20496.61c-511.7,-2362.64 198.97,-4524.13 1587.3,-4827.83 1388.32,-303.69 2928.62,1365.44 3440.28,3728.07 511.7,2362.68 -198.97,4524.17 -1587.3,4827.87 -1388.32,303.69 -2928.62,-1365.44 -3440.28,-3728.11z"/>
   </g>
   <g filter="url(#filter6_di_3_8)">
    <path class="fil4" d="M9085.79 16915.64c318.82,290.86 610.9,684.72 850.79,1153.91l-1003.05 1124.2c-73.78,-135.46 -159.12,-253.3 -251.29,-348.57l403.55 -1929.54zm-905.07 4327.57c145.43,95.73 299.77,136.44 449.04,107.13l683.58 2091.6c-63.27,24.93 -128.63,44.84 -195.87,59.51 -443.48,97.03 -905.52,-48.11 -1330.57,-375.06l393.82 -1883.19zm-524.99 1775.48l393.13 -1879.47c-110.24,-101.86 -212.01,-235.6 -298.38,-393.37l-980.85 1099.26c249.41,482.23 554.17,883.57 886.11,1173.57zm897.02 -4289.07l402.77 -1925.82c-437.96,-353.23 -917.95,-513.17 -1377.94,-412.54 -128.79,28.2 -250.52,75.54 -364.51,140.24l689.75 2110.53c43.74,-24.52 90.33,-42.55 139.71,-53.34 169.87,-37.2 346.94,17.33 510.23,140.93zm-2294.3 1673.75c101.78,470.17 252.56,907.2 439.03,1296.69l980.97 -1099.51c-62.05,-138.64 -112.65,-291.55 -147.96,-454.72 -4.29,-19.99 -8.34,-39.81 -12.14,-59.55l-1307.68 73.25c14.18,80.93 30.04,162.23 47.78,243.85zm2746.97 -1064.07l1002.84 -1124.03c181.44,383.77 328.42,813.11 428.24,1274.2 20.36,93.48 38.26,186.71 53.99,279.41l-1327.79 74.39c-3.35,-17.37 -6.87,-34.78 -10.67,-52.2 -35.07,-162.02 -85.18,-313.95 -146.61,-451.78zm-2819.16 670.7c-97.2,-647.16 -84.16,-1265.13 22.11,-1802.58l1290.1 1158.04c-26.73,174.86 -29.22,368.85 -3.8,571.3l-1308.42 73.25zm3000.6 -17.21c31.06,240.67 22.69,469.6 -19.13,668.94l1289.9 1158.04c130.06,-558.01 155.61,-1212.65 56.28,-1901.29l-1327.05 74.31zm1228.67 1991.46l-1291.62 -1159.55c-73.78,220.76 -194.89,389.86 -352.58,474.67l679.53 2079.01c447.9,-238.74 781.71,-740.72 964.67,-1394.13zm-4170 -3945.81l1288.35 1156.57c50.48,-189.49 133.21,-347.43 242.38,-456.07l-694.04 -2123.36c-394.23,284.65 -683.33,789.89 -836.69,1422.86z"/>
   </g>
   <path class="fil1" d="M7112.44 14351.91l3116.43 -722.28 0.16 0.69c19.62,-4.95 39.4,-9.52 59.14,-13.9 1851.1,-404.86 3905.1,1822.45 4587.81,4974.97 682.8,3152.61 -264.33,6036.47 -2115.43,6441.33 -17.7,3.92 -35.44,7.52 -53.26,10.95l-3027.25 703.36 -822.02 -3648.2c-290.12,-614.99 -525.31,-1302.65 -685.25,-2041.08 -147.43,-681.12 -218.92,-1349.74 -221.62,-1983.53l-838.73 -3722.31z"/>
   <ellipse class="fil9" transform="matrix(-1.09841 0.240274 0.238341 1.10052 8433.46 19976)" rx="3085.21" ry="5240.29"/>
   <g filter="url(#filter7_i_3_8)">
    <g filter="url(#filter8_i_3_8)">
     <path class="fil10" d="M5892.31 21007.82c-653.17,-2240.87 -141.14,-4346.37 1143.57,-4702.79 1284.71,-356.38 2855.66,1171.24 3508.82,3412.16 653.17,2240.87 141.18,4346.37 -1143.53,4702.79 -1284.71,356.38 -2855.7,-1171.28 -3508.87,-3412.16z"/>
    </g>
    <g filter="url(#filter9_di_3_8)">
     <path class="fil7" d="M6472.68 20986.57c415.89,1428.22 1339.23,2443.49 2197.1,2439.11l-400.2 -1574.87c-348.57,-85.02 -698.13,-484.56 -893.75,-1034.76l-903.15 170.53zm-111.63 -453.99c-288.32,-1428.46 44.31,-2715.71 782.41,-3113.41l400.36 1575.53c-269.4,245.37 -386.38,776.81 -285.91,1368.58l-896.86 169.3zm2616.01 -493.84c-193.5,-652.84 -602.69,-1127.51 -998.8,-1181.99l-396.76 -1561.38c900,-50.32 1886.09,1043.84 2289.39,2574.69l-893.83 168.69zm93.64 457.38l900.21 -169.91c245.16,1402.92 -109.99,2643.73 -857.33,2998.59l-396.64 -1560.81c280.4,-206.99 418.55,-699.93 353.76,-1267.87z"/>
    </g>
   </g>
   <g filter="url(#filter10_ii_3_8)">
    <path class="fil11" d="M53387.06 13696c32.37,28.33 66.79,54.2 103.53,76.68 128.22,78.19 243.61,133.7 346.77,164.11 1295.62,382.42 12071.43,6653.99 14392.66,9123.31 2259.02,2402.98 2095.44,3800.87 2019.21,4449.78 -11.08,93.76 -20.64,171.83 -20.64,235.11 1.59,315.42 -16.68,949.67 -40.51,1756.56 -13.49,475.24 -29.39,1010.44 -43.69,1575.65l-48.39 1920.18c-8.75,143.34 -11.94,289.71 -15.08,439.23 -12.71,634.65 -27.79,1324.64 -435.92,2070.72 -502.67,919.75 -2904.63,4277.95 -14228.71,7522.69 -3839.9,1100.33 -8231.6,-341.95 -11023.46,-1583.09 -1167.28,-469.07 -2048.73,-915.82 -2483.38,-1146.06 -66.87,-35.4 -117.92,-89.51 -150.09,-154.26 -8.71,-17.53 -23.38,-33.76 -40.55,-43.12l0 0c-25.79,-14.1 -40.67,-39.28 -42.26,-68.67 -50.85,-959.97 -243.85,-2313.3 -542.36,-3669.62 -342.36,-1463.21 -806.32,-2916.4 -1331.8,-3869.7 -1234.27,-2239.24 -3911.39,-5030.32 -6089.85,-4339.55 -2472.14,784 -2373.35,4313.43 -2347.64,5156.29 7.56,247.82 32.13,413.6 56.2,577.34 27.59,186.22 54.65,369.75 56.08,668.25 0.08,14.55 -0.69,28.78 -2.29,42.63 -1.59,13.45 -2.94,26.98 -3.02,40.42 -0.29,49.74 -1.72,104.43 -4.29,164.93 -3.96,92.62 -104.11,147.15 -185.32,102.55l0 0c-30.04,-16.43 -65.23,-19.05 -99.2,-14.1 -73.37,10.83 -152.05,-0.9 -225.3,-40.87l-18724.48 -10187.26c-99.36,-53.99 -168.97,-151.03 -181.11,-263.47 -45.21,-417.81 -31.72,-902.33 -16.64,-1442.69l0 -0.16c41.69,-1492.31 95.24,-3410.4 -1042.82,-5524.69 -1040.08,-1932.44 -2593.86,-3233.58 -4044.97,-2818.3 -1451.11,415.28 -1881.96,1955.94 -1982.3,2817.56 -98.63,846.17 -72.59,1625.6 -57.43,2077.62l0 0.08 -0.08 0.08c6.13,181.93 10.38,310.81 4.13,369.62 -21.99,205.11 -2049.46,-1631.2 -2165.5,-2314.2 -353.03,-2078.77 -388.47,-4017.87 -122.34,-6112.05 43.53,-342.61 192.07,-1206.8 297.32,-1545.61 15.98,-51.46 25.01,-104.56 23.13,-158.47 -25.1,-721.67 127.49,-1777.08 336.02,-2220.6 18.68,-39.69 36.95,-81.54 56.08,-125.4 223.91,-512.56 573.5,-1313.08 3138.92,-2383.11 3642.73,-1519.45 13541.34,-4856.64 13922.98,-4930.83 901.64,-175.31 2047.95,-61.11 2975.83,31.39 544.52,54.28 1013.84,101 1314.55,77.46 4342.24,-340.89 9347.59,384.42 15887.3,3894.02 877.56,398.93 1743.85,850.75 2580.78,1362.66 2090.62,1278.78 3845.01,2624.76 5300.98,3859.24 1699.58,1368.54 3005.83,2593.21 3943.76,3472.45l0 0c392.27,367.78 720.04,675.07 985.18,907.28z"/>
   </g>
   <g filter="url(#filter11_ddi_3_8)">
    <path class="fil12" d="M35854.38 20771.69c-2383.48,-1058.35 -3654.21,-4366.61 -7211.8,-8293.94 -86.98,-95.97 -51.05,-250.97 70.3,-296.17l15078.03 -5616.16c27.55,-10.26 56.41,-13.73 84.9,-6.58 264.25,66.13 1797.35,590.22 5963.22,4445.33 2094.14,1937.96 2510.48,2439.44 3598.17,3213.43 172,122.42 135.01,381.35 -521.43,895.02 -2092.54,1637.49 -13536.8,7223.94 -17061.4,5659.08z"/>
   </g>
   <g filter="url(#filter12_di_3_8)">
    <path class="fil13" d="M19187.62 7653.03c-3141.08,-1076.99 -3955.7,-1103.23 -6138.41,-1281.97 -1501.91,-123.03 -3895.66,38.91 -4173.39,709.45 -277.7,670.66 2559.49,2870.95 3739.48,3563.6 576.65,338.52 20497.71,10963.05 19886.44,9751.58 -753.14,-1492.55 -4284.73,-5791.1 -5483.69,-7540.22 -1999.06,-2916.19 -4689.47,-4125.57 -7830.43,-5202.44z"/>
   </g>
   <g filter="url(#filter13_di_3_8)">
    <path class="fil14" d="M12061.7 5477.11l13420.96 -5073.56c0,0 -300.38,97.32 -1929.82,31.96 -568.52,-22.77 -14498.93,5294.98 -14601.81,5380.97l3110.67 -339.38z"/>
   </g>
   <g filter="url(#filter16_di_3_8)">
    <path class="fil15" d="M23801.15 20654.22c1.76,-69.98 -36.54,-134.76 -98.55,-166.93l-1718.38 -890.44c-119.39,-61.8 -262,22.64 -265.44,157.16l-7.15 281.21c-1.76,69.98 36.58,134.88 98.87,167.01l1718.42 886.96c119.35,61.64 261.76,-22.85 265.15,-157.2l7.07 -277.78z"/>
   </g>
   <g filter="url(#filter17_di_3_8)">
    <path class="fil15" d="M14150.07 16097.96c1.84,-69.98 -36.5,-134.84 -98.51,-167.01l-1718.38 -890.36c-119.35,-61.84 -262.08,22.6 -265.48,157.16l-7.11 281.09c-1.76,70.02 36.62,135.01 98.83,167.05l1718.46 886.96c119.35,61.6 261.72,-22.81 265.11,-157.2l7.07 -277.7z"/>
   </g>
   <path class="fil16" d="M45846.31 18792.74l-11412.58 -8766.69c-1340.79,326.87 -4405.76,1606.8 -4988.75,1809 -755.27,262.12 -883.57,415.65 -883.57,415.65 -5.8,225.87 107.01,327.6 461.26,689.83 507.86,519.3 722.32,757.84 1970.49,2437.68 1797.47,2419.21 3154.94,4662.25 4496.79,5226.14 1067.55,448.71 2739.82,859.87 5153.02,130.8 2156.96,-651.69 3493.99,-1416.04 5203.34,-1942.41z"/>
   <g filter="url(#filter20_ddii_3_8)">
    <path class="fil17" d="M68690.6 27004.03c631.99,-809.79 479.53,-1474.2 416.02,-2513.01 -2.33,-28.28 -7.89,-58.45 -15.86,-85.67 -243.77,-824.75 868.69,903.68 959.97,2082.69 30.21,390.26 0,586.79 -45.25,945.13 -21.42,163.95 -385.07,1158.9 -339.83,1376.8 44.47,217.98 -104.02,1708.37 -101.65,1934.2 1.59,225.91 -983.02,1881.14 -3499.51,3437.87 -2090.38,1293.25 -5065.14,2101.33 -5368.88,2137.26 -303.78,35.76 -574.65,-987.27 -792.91,-1048.87 -571.25,-161.41 -2285.63,419.49 -2923.71,562.92 -744.56,167.22 -2481.87,552.41 -4362.48,262.08 -2326.1,-359.04 -2676.47,-633.38 -4792.18,-1856.29 -1340.83,-775.05 -2287.67,-2207.36 -2674.59,-3073.11 -104.72,-234.21 108.56,-434.78 350.04,-348 1476.12,530.46 4517.92,1708.12 7974.92,2151.48 5136.79,658.85 9266.86,-1685.85 9858.59,-2022.93 2487.3,-1417.14 3788.24,-1931.42 5357.31,-3942.54z"/>
   </g>
   <g style="clip-path:url(#id0)">
    <polygon class="fil18" points="45125.05,24518.16 70315.54,24518.16 70315.54,36314.95 45125.05,36314.95 "/>
   </g>
   <g style="clip-path:url(#id1)">
    <g>
     <path id="1" class="fil19 str0" d="M48801.41 31587.43l6927.4 280.31c0.45,1.31 0.86,2.74 1.35,4.17 17.78,56.08 40.18,137.38 57.88,236.25 35.52,198.73 50.72,462.2 -23.83,732.42 -73.65,267.36 -236.5,546.98 -567.66,782.08 -333.41,236.74 -844.37,433.14 -1620.53,517.3 -461.18,49.99 -1096.69,31.6 -1746.67,-108.89 -650.22,-140.65 -1305.23,-401.38 -1813.74,-828.43 -275.08,-230.9 -608.33,-681.61 -878.75,-1087.41 -133.66,-200.49 -249.25,-385.97 -331.53,-521.39 -1.31,-2.13 -2.62,-4.29 -3.92,-6.42z" filter="url(#filter21_d_3_8)"/>
     <path class="fil19 str0" d="M69109.8 24844.62c0.82,1.27 1.59,2.41 2.37,3.64 60.37,114.28 136.6,278.68 194.56,478.47 115.96,399.26 159.57,933.44 -117.51,1493.13 -79.42,159.37 -188.18,263.96 -297.77,305.08 -101.61,38.18 -223.13,29.18 -357.32,-78.15 -92.91,-73.9 -223.13,-105.7 -341.46,-120.58 -123.85,-15.61 -259.63,-15.49 -382.7,-9.24 -52.44,2.62 -103.25,6.42 -151.68,10.87l1451.52 -2083.22z" filter="url(#filter22_d_3_8)"/>
    </g>
   </g>
   <path class="fil20" d="M68690.6 26993.65c501.03,-642.21 547.83,-1403.37 445.4,-2075.66 -56.37,-366.15 305.7,-558.38 486.73,-235.27 447.9,800.52 629.66,1475.88 677.32,1847.09 30.16,390.26 14.31,637.18 -30.94,995.61 -20.64,164.03 -647.16,1055.69 -602.69,1273.55 45.25,217.94 -102.43,1708.41 -100.02,1934.32 1.55,225.87 -982.24,1881.75 -3497.22,3440.12 -2089.6,1294.48 -5063.83,2104.56 -5367.61,2140.61 -303.73,36.09 -575.22,-986.82 -793.57,-1048.38 -571.34,-161 -2285.34,421 -2923.35,564.84 -744.48,167.71 -2481.42,553.96 -4362.27,264.94 -2326.3,-357.57 -2676.84,-631.75 -4793.41,-1853.27 -1341.28,-774.19 -2289.15,-2205.97 -2676.51,-3071.43 -104.84,-234.09 108.32,-434.86 349.76,-348.21 1476.53,529.56 4519.06,1705.3 7976.35,2146.45 5137.28,655.45 9265.72,-1691.85 9857.24,-2029.31 2486.44,-1418.69 3786.52,-1933.83 5354.77,-3946.01z"/>
  </g>
  <path class="fil21" d="M103228.35 32524.42c6817.9,0 11031.02,-4017.01 12639.37,-12043.1 1365.15,-6833.59 -1365.15,-10254.33 -8183.05,-10254.33l-6778.66 0 -4456.32 22297.43 6778.66 0zm-13933.93 5287.99l6574.66 -32873.41 12874.76 0c10881.95,0 15283.38,5186.01 13219.98,15542.32 -2314.49,11556.66 -8912.69,17331.09 -19794.64,17331.09l-12874.76 0zm33791.35 0l4825.09 -24133.33 5405.66 0 -847.32 7673.1c2722.45,-5115.37 5648.86,-7673.1 8779.32,-7673.1l-1035.66 5146.77c-3036.28,0 -5939.15,2471.4 -8716.53,7422.01l-2314.49 11564.55 -6096.06 0zm29452.67 -32873.41l-972.88 4832.94 -6088.22 0 964.99 -4832.94 6096.1 0zm-1749.61 8740.08l-4825.09 24133.33 -6096.06 0 4825.09 -24133.33 6096.06 0zm2871.56 0l6441.29 0 2479.25 16868.23 9469.72 -16868.23 6433.48 0 -14640.07 24133.33 -5790.08 0 -4393.58 -24133.33zm37769.08 0c6864.98,0 9814.94,2400.81 8849.95,7218.05 -965.03,4809.39 -4691.72,7218.01 -11172.24,7218.01l-6049.06 0c-643.32,3248.13 1153.34,4872.17 5382.16,4872.17 3201.04,0 6221.63,-996.43 9053.91,-2989.19l-965.03 4825.09c-2526.3,1992.81 -5703.8,2989.19 -9516.8,2989.19 -7979.04,0 -11156.54,-4111.14 -9516.8,-12341.24 1577,-7861.41 6221.63,-11792.09 13933.93,-11792.09zm-7469.06 9971.9l6088.22 0c2526.34,0 3969.92,-863.05 4322.99,-2596.93 337.33,-1726.07 -965.03,-2596.93 -3907.14,-2596.93 -3373.65,0 -5539.07,1733.87 -6504.07,5193.85zm21599.14 14161.43l-6480.52 0 20524.28 -32873.41 6551.15 0 7680.91 32873.41 -6323.61 0 -1953.57 -8967.62 -10913.34 0 3146.11 -5280.14 6621.74 0 -2714.6 -12349.08 -16138.55 26596.84zm59187.81 -24133.33l-4825.09 24133.33 -5405.66 0 949.3 -8135.96c-2989.19,5421.36 -6731.57,8135.96 -11219.29,8135.96 -4644.67,0 -6441.33,-2612.62 -5405.7,-7837.83l3263.83 -16295.5 6096.06 0 -3263.78 16366.09c-384.42,1898.68 517.83,2847.97 2714.6,2847.97 2895.06,0 5790.12,-2549.84 8685.18,-7657.37l2322.29 -11556.7 6088.26 0zm6527.61 -3907.14l4503.41 0 141.22 3907.14 5609.66 0 -965.03 4825.13 -4942.76 0 -2228.16 11101.61c-447.24,2251.71 305.98,3381.5 2251.71,3381.5l2016.31 0 -964.99 4825.09 -4958.5 0c-4048.36,0 -5633.17,-2165.42 -4762.31,-6504.07l4299.45 -21536.4zm17401.72 15879.65c-1012.08,5044.79 360.88,7563.23 4111.14,7563.23 3758.07,0 6135.3,-2518.45 7147.38,-7563.23 980.73,-4919.22 -407.96,-7374.93 -4158.19,-7374.93 -3758.07,0 -6119.65,2455.71 -7100.34,7374.93zm-6119.65 94.17c1639.74,-8198.74 6370.7,-12294.19 14185.02,-12294.19 7814.28,0 10905.46,4095.45 9265.72,12294.19 -1639.74,8183.05 -6370.7,12270.65 -14184.98,12270.65 -7782.93,0 -10874.11,-4087.6 -9265.76,-12270.65z"/>
 </g>
</svg>
