<svg width="80" height="80" viewBox="0 0 80 80" fill="none" xmlns="http://www.w3.org/2000/svg">
<path d="M39.9943 21.6485C36.3658 21.6485 32.8188 22.7244 29.8019 24.7403C26.7849 26.7562 24.4335 29.6214 23.045 32.9736C21.6564 36.3259 21.2931 40.0146 22.001 43.5734C22.7089 47.1321 24.4561 50.401 27.0218 52.9667C29.5875 55.5324 32.8564 57.2797 36.4152 57.9876C39.9739 58.6954 43.6626 58.3321 47.0149 56.9436C50.3672 55.555 53.2324 53.2036 55.2482 50.1867C57.2641 47.1697 58.3401 43.6227 58.3401 39.9943C58.335 35.1302 56.4005 30.4668 52.9611 27.0274C49.5217 23.588 44.8583 21.6535 39.9943 21.6485ZM39.9943 52.2248C37.5753 52.2248 35.2106 51.5075 33.1993 50.1636C31.188 48.8197 29.6204 46.9095 28.6947 44.6747C27.769 42.4398 27.5268 39.9807 27.9987 37.6082C28.4707 35.2357 29.6355 33.0564 31.346 31.346C33.0564 29.6355 35.2357 28.4707 37.6082 27.9987C39.9807 27.5268 42.4398 27.769 44.6747 28.6947C46.9095 29.6204 48.8197 31.188 50.1636 33.1993C51.5075 35.2106 52.2248 37.5753 52.2248 39.9943C52.2248 43.238 50.9362 46.3489 48.6426 48.6426C46.3489 50.9362 43.238 52.2248 39.9943 52.2248ZM73.6282 40.8198C73.6435 40.2695 73.6435 39.7191 73.6282 39.1687L79.3307 32.0444C79.6297 31.6704 79.8367 31.2313 79.935 30.7626C80.0332 30.2939 80.02 29.8087 79.8964 29.3461C78.9616 25.8321 77.5632 22.4582 75.738 19.3132C75.499 18.9016 75.1673 18.5515 74.7692 18.2908C74.371 18.03 73.9176 17.8658 73.4448 17.8111L64.3789 16.8021C64.0018 16.4046 63.6196 16.0224 63.2323 15.6555L62.1621 6.56668C62.1071 6.09356 61.9423 5.63984 61.6808 5.2417C61.4194 4.84355 61.0685 4.512 60.6562 4.27346C57.5101 2.45167 54.1364 1.05466 50.6234 0.118897C50.1604 -0.00418489 49.675 -0.0167736 49.2063 0.082145C48.7376 0.181064 48.2987 0.388722 47.925 0.688381L40.8198 6.36029H39.1687L32.0444 0.669271C31.6704 0.370266 31.2313 0.163301 30.7626 0.0650486C30.2939 -0.0332036 29.8087 -0.0199961 29.3461 0.103608C25.8326 1.04011 22.4589 2.43843 19.3132 4.26199C18.9016 4.50097 18.5515 4.83272 18.2908 5.23084C18.03 5.62895 17.8658 6.08244 17.8111 6.55522L16.8021 15.6364C16.4046 16.016 16.0224 16.3982 15.6555 16.783L6.56668 17.8264C6.09356 17.8815 5.63984 18.0463 5.2417 18.3077C4.84355 18.5692 4.512 18.92 4.27346 19.3323C2.45167 22.4785 1.05466 25.8521 0.118897 29.3652C-0.00418489 29.8281 -0.0167736 30.3135 0.082145 30.7822C0.181064 31.2509 0.388722 31.6898 0.688381 32.0635L6.36029 39.1687V40.8198L0.669271 47.9441C0.370266 48.3182 0.163301 48.7572 0.0650486 49.2259C-0.0332036 49.6946 -0.0199961 50.1798 0.103608 50.6425C1.03844 54.1565 2.43685 57.5304 4.26199 60.6753C4.50097 61.0869 4.83272 61.437 5.23084 61.6978C5.62895 61.9585 6.08244 62.1228 6.55522 62.1774L15.6211 63.1864C16.0008 63.5839 16.383 63.9661 16.7677 64.333L17.8264 73.4219C17.8815 73.895 18.0463 74.3487 18.3077 74.7468C18.5692 75.145 18.92 75.4765 19.3323 75.7151C22.4785 77.5369 25.8521 78.9339 29.3652 79.8696C29.8281 79.9927 30.3135 80.0053 30.7822 79.9064C31.2509 79.8075 31.6898 79.5998 32.0635 79.3002L39.1687 73.6282C39.7191 73.6435 40.2695 73.6435 40.8198 73.6282L47.9441 79.3307C48.3182 79.6297 48.7572 79.8367 49.2259 79.935C49.6946 80.0332 50.1798 80.02 50.6425 79.8964C54.1565 78.9616 57.5304 77.5632 60.6753 75.738C61.0869 75.499 61.437 75.1673 61.6978 74.7692C61.9585 74.371 62.1228 73.9176 62.1774 73.4448L63.1864 64.3789C63.5839 64.0018 63.9661 63.6196 64.333 63.2323L73.4219 62.1621C73.895 62.1071 74.3487 61.9423 74.7468 61.6808C75.145 61.4194 75.4765 61.0685 75.7151 60.6562C77.5369 57.5101 78.9339 54.1364 79.8696 50.6234C79.9927 50.1604 80.0053 49.675 79.9064 49.2063C79.8075 48.7376 79.5998 48.2987 79.3002 47.925L73.6282 40.8198ZM67.4748 38.3355C67.5397 39.4404 67.5397 40.5481 67.4748 41.653C67.4292 42.4095 67.6662 43.1559 68.1398 43.7475L73.5633 50.524C72.9409 52.5018 72.1441 54.4203 71.1821 56.2571L62.5443 57.2355C61.7921 57.319 61.0975 57.6785 60.5951 58.2445C59.8594 59.072 59.0758 59.8555 58.2483 60.5913C57.6823 61.0937 57.3228 61.7883 57.2393 62.5405L56.28 71.1707C54.4435 72.1331 52.5249 72.93 50.5469 73.5518L43.7666 68.1283C43.2241 67.6948 42.5501 67.4589 41.8556 67.4595H41.6721C40.5673 67.5244 39.4595 67.5244 38.3546 67.4595C37.5982 67.4139 36.8518 67.6509 36.2601 68.1245L29.4645 73.5518C27.4868 72.9295 25.5682 72.1326 23.7315 71.1707L22.753 62.5443C22.6695 61.7921 22.31 61.0975 21.744 60.5951C20.9166 59.8594 20.133 59.0758 19.3973 58.2483C18.8948 57.6823 18.2003 57.3228 17.448 57.2393L8.81787 56.2762C7.85544 54.4397 7.05858 52.5211 6.43673 50.5431L11.8602 43.7628C12.3338 43.1712 12.5708 42.4248 12.5252 41.6683C12.4603 40.5634 12.4603 39.4557 12.5252 38.3508C12.5708 37.5943 12.3338 36.8479 11.8602 36.2563L6.43673 29.4645C7.05906 27.4868 7.8559 25.5682 8.81787 23.7315L17.4442 22.753C18.1965 22.6695 18.891 22.31 19.3935 21.744C20.1292 20.9166 20.9128 20.133 21.7402 19.3973C22.3084 18.8945 22.6694 18.1984 22.753 17.4442L23.7124 8.81787C25.5489 7.85544 27.4675 7.05858 29.4454 6.43673L36.2257 11.8602C36.8174 12.3338 37.5638 12.5708 38.3202 12.5252C39.4251 12.4603 40.5329 12.4603 41.6377 12.5252C42.3942 12.5708 43.1406 12.3338 43.7322 11.8602L50.524 6.43673C52.5018 7.05906 54.4203 7.8559 56.2571 8.81787L57.2355 17.4442C57.319 18.1965 57.6785 18.891 58.2445 19.3935C59.072 20.1292 59.8555 20.9128 60.5913 21.7402C61.0937 22.3062 61.7883 22.6657 62.5405 22.7492L71.1707 23.7085C72.1331 25.545 72.93 27.4637 73.5518 29.4416L68.1283 36.2219C67.6502 36.8185 67.4129 37.5726 67.4633 38.3355H67.4748Z" fill="#2B7A77"/>
</svg>
