<svg width="40" height="32" viewBox="0 0 40 32" fill="none" xmlns="http://www.w3.org/2000/svg">
<path d="M4 32C2.9 32 1.958 31.608 1.174 30.824C0.390003 30.04 -0.00132994 29.0987 3.39559e-06 28V4C3.39559e-06 2.9 0.392003 1.958 1.176 1.174C1.96 0.390003 2.90134 -0.00132994 4 3.39559e-06H36C37.1 3.39559e-06 38.042 0.392003 38.826 1.176C39.61 1.96 40.0013 2.90134 40 4V28C40 29.1 39.608 30.042 38.824 30.826C38.04 31.61 37.0987 32.0013 36 32H4ZM36 8L21.05 17.35C20.8833 17.45 20.708 17.5253 20.524 17.576C20.34 17.6267 20.1653 17.6513 20 17.65C19.8333 17.65 19.658 17.6253 19.474 17.576C19.29 17.5267 19.1153 17.4513 18.95 17.35L4 8V28H36V8ZM20 14L36 4H4L20 14ZM4 8.5V5.55V5.6V5.576V8.5Z" fill="#565656"/>
</svg>
