<svg width="40" height="40" viewBox="0 0 40 40" fill="none" xmlns="http://www.w3.org/2000/svg">
<path d="M37.6667 40C38.3333 40 38.8889 39.7778 39.3333 39.3333C39.7778 38.8889 40 38.3333 40 37.6667L40 28.6667C40 28.1481 39.8333 27.6941 39.5 27.3044C39.1667 26.9148 38.7407 26.6652 38.2222 26.5556L30.5556 25C30.037 24.9259 29.5089 24.9726 28.9711 25.14C28.4333 25.3074 27.9985 25.557 27.6667 25.8889L22.4444 31.1111C19.6296 29.4074 17.0459 27.3889 14.6933 25.0556C12.3407 22.7222 10.3874 20.2222 8.83333 17.5556L14.2222 12.1111C14.5556 11.7778 14.7681 11.3978 14.86 10.9711C14.9518 10.5444 14.9615 10.0726 14.8889 9.55555L13.4444 1.77778C13.3704 1.25926 13.1296 0.833331 12.7222 0.499997C12.3148 0.166664 11.8519 -2.46079e-06 11.3333 -2.50612e-06L2.33333 -3.29293e-06C1.66666 -3.35121e-06 1.11111 0.222219 0.666664 0.666663C0.222217 1.11111 -1.45705e-07 1.66666 -2.03987e-07 2.33333C-6.21673e-07 7.11111 1.06518 11.7689 3.19555 16.3067C5.32592 20.8444 8.14074 24.863 11.64 28.3622C15.1393 31.8615 19.1578 34.6763 23.6956 36.8067C28.2333 38.937 32.8904 40.0015 37.6667 40ZM6.72222 13.3333C6.09259 11.8889 5.61111 10.4259 5.27777 8.94444C4.94444 7.46296 4.68518 5.96296 4.5 4.44444L9.44444 4.44444L10.3889 9.66666L6.72222 13.3333ZM26.6111 33.2222L30.3333 29.5L35.5556 30.5556L35.5556 35.4444C34.037 35.3333 32.5274 35.0926 31.0267 34.7222C29.5259 34.3519 28.0541 33.8519 26.6111 33.2222Z" fill="black"/>
</svg>
