<svg width="89" height="80" viewBox="0 0 89 80" fill="none" xmlns="http://www.w3.org/2000/svg">
<path d="M9.93239 44.1025L7.76624 46.2851C8.34248 46.8563 9.12102 47.1768 9.93239 47.1768C10.7438 47.1768 11.5223 46.8563 12.0985 46.2851L9.93239 44.1025ZM18.9908 39.4502C19.5708 38.8746 19.8983 38.0923 19.9014 37.2752C19.9045 36.4581 19.5828 35.6733 19.0072 35.0933C18.7222 34.8062 18.3835 34.5779 18.0103 34.4217C17.6371 34.2655 17.2368 34.1843 16.8322 34.1828C16.0151 34.1797 15.2303 34.5013 14.6503 35.0769L18.9867 39.4461L18.9908 39.4502ZM5.20625 35.0769C4.62365 34.5184 3.84494 34.2111 3.03793 34.2214C2.23093 34.2316 1.46025 34.5585 0.891996 35.1316C0.323739 35.7047 0.00340315 36.4781 2.69592e-05 37.2852C-0.00334923 38.0922 0.310504 38.8683 0.873946 39.4461L5.20625 35.0769ZM71.2082 21.0954C71.4144 21.4505 71.6897 21.7608 72.0177 22.0079C72.3458 22.255 72.72 22.4339 73.1183 22.5341C73.5165 22.6343 73.9309 22.6538 74.3368 22.5913C74.7427 22.5289 75.132 22.3858 75.4818 22.1705C75.8315 21.9552 76.1347 21.6721 76.3733 21.3379C76.6119 21.0036 76.7812 20.6249 76.8711 20.2242C76.9611 19.8235 76.9699 19.4088 76.8971 19.0046C76.8243 18.6004 76.6713 18.2149 76.4471 17.8708L71.2082 21.0954ZM44.3898 4.20582e-05C23.6842 4.20582e-05 6.85137 16.6605 6.85137 37.2636H13.0052C13.0052 20.1067 27.0359 6.15388 44.3898 6.15388V4.20582e-05ZM6.85137 37.2636V44.1025H13.0052V37.2636H6.85137ZM12.1026 46.2892L18.9908 39.4502L14.6503 35.0769L7.75804 41.9159L12.0944 46.281L12.1026 46.2892ZM12.1026 41.92L5.20625 35.0769L0.869844 39.4461L7.76214 46.281L12.0944 41.9159L12.1026 41.92ZM76.4471 17.879C73.0792 12.4066 68.364 7.8894 62.7522 4.75921C57.1404 1.62902 50.8155 -0.00957142 44.3898 4.20582e-05V6.15388C49.7651 6.14272 55.0576 7.51095 59.753 10.1277C64.4485 12.7444 68.394 16.5221 71.2123 21.0995L76.4512 17.8749L76.4471 17.879ZM78.1743 35.8974L80.3363 33.7108C79.7605 33.142 78.9837 32.8231 78.1743 32.8231C77.3649 32.8231 76.5882 33.142 76.0123 33.7108L78.1743 35.8974ZM69.0912 40.5456C68.8038 40.8298 68.5752 41.1678 68.4184 41.5404C68.2616 41.9129 68.1797 42.3127 68.1774 42.7169C68.1728 43.5332 68.4927 44.3179 69.0666 44.8984C69.6406 45.4789 70.4216 45.8076 71.2379 45.8122C72.0542 45.8168 72.839 45.497 73.4194 44.923L69.0912 40.5456ZM82.9292 44.923C83.2149 45.2146 83.5559 45.4465 83.9321 45.605C84.3083 45.7635 84.7124 45.8456 85.1207 45.8464C85.5289 45.8472 85.9333 45.7668 86.3102 45.6098C86.687 45.4527 87.0289 45.2223 87.3158 44.9318C87.6027 44.6414 87.829 44.2967 87.9814 43.9179C88.1338 43.5392 88.2092 43.1338 88.2034 42.7256C88.1976 42.3174 88.1106 41.9144 87.9475 41.5401C87.7843 41.1658 87.5484 40.8278 87.2533 40.5456L82.9292 44.923ZM16.6524 58.8964C16.2237 58.2016 15.5366 57.7056 14.7422 57.5175C13.9478 57.3294 13.1112 57.4646 12.4165 57.8933C11.7218 58.322 11.2258 59.0091 11.0377 59.8035C10.8496 60.5979 10.9847 61.4344 11.4134 62.1292L16.6524 58.8964ZM43.5857 79.9999C64.3528 79.9999 81.2471 63.3517 81.2471 42.7364H75.0933C75.0933 59.8851 61.0215 73.8461 43.5857 73.8461V79.9999ZM81.2471 42.7364V35.8974H75.0933V42.7364H81.2471ZM76.0123 33.7108L69.0912 40.5456L73.4194 44.923L80.3363 38.0841L76.0123 33.7108ZM76.0123 38.0841L82.9292 44.923L87.2533 40.5456L80.3363 33.7108L76.0123 38.0841ZM11.4093 62.1251C14.7997 67.6033 19.5365 72.1222 25.1682 75.2512C30.7999 78.3802 37.139 80.015 43.5816 79.9999V73.8461C38.1893 73.8611 32.883 72.4951 28.1683 69.8782C23.4537 67.2612 19.4918 63.4805 16.6524 58.8964L11.4134 62.1292L11.4093 62.1251Z" fill="#2B7A77"/>
</svg>
