<svg width="55" height="55" viewBox="0 0 55 55" fill="none" xmlns="http://www.w3.org/2000/svg">
<path fill-rule="evenodd" clip-rule="evenodd" d="M55 0H0V55H55V0ZM42.8091 27.8555C42.8125 27.7563 42.8125 27.6709 42.8125 27.5957V27.4043C42.8125 27.3693 42.8118 27.3321 42.811 27.2923C42.8101 27.2466 42.8091 27.1975 42.8091 27.1445L42.8085 27.0945C42.8052 26.8304 42.8016 26.5368 42.792 26.2251C42.7646 25.2715 42.7168 24.3213 42.6416 23.4258C42.5391 22.1919 42.3921 21.1631 42.1836 20.3906C41.7461 18.75 40.4609 17.4614 38.8237 17.0239C37.8599 16.7676 35.9629 16.6069 33.2969 16.5044C32.0288 16.4565 30.6719 16.4258 29.3149 16.4087C28.8909 16.4026 28.4942 16.3992 28.1319 16.3961L28.0024 16.395H26.9976L26.8681 16.3961C26.5058 16.3992 26.1091 16.4026 25.6851 16.4087C24.3281 16.4258 22.9712 16.4565 21.7031 16.5044C19.0371 16.6035 17.1401 16.7642 16.1763 17.0239C14.5391 17.4614 13.2539 18.7534 12.8164 20.3906C12.6113 21.1631 12.4609 22.1919 12.3584 23.4258C12.2832 24.3213 12.2354 25.2715 12.208 26.2251C12.2071 26.2702 12.2061 26.315 12.2052 26.3593C12.1994 26.6407 12.1939 26.9054 12.1909 27.1445C12.1875 27.2437 12.1875 27.3291 12.1875 27.4043V27.5957C12.1875 27.6307 12.1882 27.6679 12.189 27.7077C12.1899 27.7534 12.1909 27.8025 12.1909 27.8555L12.1915 27.9055C12.1948 28.1696 12.1984 28.4632 12.208 28.7749C12.2354 29.7285 12.2832 30.6787 12.3584 31.5742C12.4609 32.8081 12.6079 33.8369 12.8164 34.6094C13.0323 35.4158 13.4563 36.1513 14.046 36.7421C14.6357 37.333 15.3703 37.7586 16.1763 37.9761C17.1401 38.2324 19.0371 38.3931 21.7031 38.4956C22.9712 38.5435 24.3281 38.5742 25.6851 38.5913C26.1089 38.5974 26.5055 38.6008 26.8676 38.6039L26.9976 38.605H28.0024L28.1324 38.6039C28.4945 38.6008 28.8911 38.5974 29.3149 38.5913C30.6719 38.5742 32.0288 38.5435 33.2969 38.4956C35.9629 38.3965 37.8564 38.2358 38.8237 37.9761C39.6294 37.758 40.3638 37.3323 40.9534 36.7415C41.543 36.1507 41.9672 35.4155 42.1836 34.6094C42.3887 33.8369 42.5391 32.8081 42.6416 31.5742C42.7168 30.6787 42.7646 29.7285 42.792 28.7749C42.7929 28.7298 42.7939 28.685 42.7948 28.6407C42.8006 28.3593 42.8061 28.0947 42.8091 27.8555ZM40.3481 27.1753C40.3516 27.2676 40.3516 27.3462 40.3516 27.418V27.582C40.3516 27.6137 40.3508 27.6482 40.35 27.6853C40.3491 27.7285 40.3481 27.7751 40.3481 27.8247L40.3475 27.8747C40.3443 28.1253 40.3407 28.4052 40.3311 28.7031C40.3037 29.6123 40.2593 30.5215 40.1875 31.3657C40.0952 32.4663 39.9653 33.3687 39.8047 33.9736C39.5928 34.7632 38.9707 35.3853 38.1846 35.5972C37.4702 35.7886 35.6587 35.939 33.2012 36.0347C31.9536 36.0825 30.6172 36.1133 29.2808 36.1304L27.9888 36.1406H27.0112C26.6216 36.1406 26.1875 36.1372 25.7192 36.1304C24.3828 36.1133 23.043 36.0825 21.7988 36.0347C19.3413 35.9424 17.5332 35.7886 16.8154 35.5972C16.0293 35.3887 15.4072 34.7632 15.1953 33.9736C15.0347 33.3687 14.9048 32.4663 14.8125 31.3657C14.7407 30.5215 14.6929 29.6123 14.6689 28.7031C14.6679 28.6536 14.6668 28.6047 14.6658 28.5564C14.6601 28.2944 14.6547 28.0498 14.6519 27.8247C14.6484 27.7324 14.6484 27.6538 14.6484 27.582V27.418C14.6484 27.3863 14.6492 27.3518 14.65 27.3147C14.6509 27.2715 14.6519 27.2249 14.6519 27.1753L14.6525 27.1253C14.6557 26.8747 14.6593 26.5948 14.6689 26.2969C14.6963 25.3877 14.7407 24.4785 14.8125 23.6343C14.9048 22.5337 15.0347 21.6313 15.1953 21.0264C15.4072 20.2368 16.0293 19.6147 16.8154 19.4028C17.5298 19.2114 19.3413 19.061 21.7988 18.9653C23.0464 18.9175 24.3828 18.8867 25.7192 18.8696L27.0112 18.8594H27.9888C28.3784 18.8594 28.8125 18.8628 29.2808 18.8696C30.6172 18.8867 31.957 18.9175 33.2012 18.9653C35.6587 19.0576 37.4668 19.2114 38.1846 19.4028C38.9707 19.6113 39.5928 20.2368 39.8047 21.0264C39.9653 21.6313 40.0952 22.5337 40.1875 23.6343C40.2593 24.4785 40.3071 25.3877 40.3311 26.2969C40.3321 26.3464 40.3332 26.3953 40.3342 26.4436C40.3399 26.7056 40.3453 26.9502 40.3481 27.1753ZM32.3877 27.5342L24.458 22.9199V32.0801L32.3877 27.5342Z" fill="#3AAFA9"/>
</svg>
