<svg width="55" height="55" viewBox="0 0 55 55" fill="none" xmlns="http://www.w3.org/2000/svg">
<path fill-rule="evenodd" clip-rule="evenodd" d="M55 0H0V55H55V0ZM40.5039 18.8215C41.4694 18.8215 41.6736 19.3188 41.4694 19.9968C41.064 21.8621 37.1687 27.3484 37.1672 27.3469C36.8304 27.8894 36.6934 28.1592 37.1672 28.7703C37.3347 29.0039 37.6906 29.3525 38.0978 29.7517C38.517 30.1624 38.9906 30.6262 39.3694 31.073C40.7432 32.6172 41.7786 33.9226 42.0658 34.8193C42.3284 35.7207 41.8718 36.177 40.959 36.177H37.7623C36.9069 36.177 36.4753 35.697 35.5431 34.6604C35.1482 34.2212 34.6636 33.6821 34.0188 33.0374C32.1215 31.21 31.3077 30.9709 30.8352 30.9709C30.1921 30.9709 29.9982 31.1545 29.9982 32.0674V34.9346C29.9982 35.7222 29.7473 36.1785 27.7158 36.1785C24.3267 36.1785 20.6064 34.1223 17.964 30.3291C14.0002 24.7744 12.9166 20.5745 12.9166 19.7256C12.9166 19.2532 13.099 18.823 14.0133 18.823H17.21C18.0266 18.823 18.3344 19.1802 18.6392 20.0654C20.204 24.6213 22.8406 28.6011 23.9242 28.6011C24.3325 28.6011 24.5177 28.4128 24.5177 27.3818V22.6743C24.4446 21.3323 23.9761 20.7522 23.6292 20.3225C23.4152 20.0576 23.2476 19.8501 23.2476 19.5564C23.2476 19.1978 23.5537 18.8215 24.0613 18.8215H29.0867C29.7648 18.8215 29.9996 19.1831 29.9996 19.9968V26.3303C29.9996 27.0085 30.2942 27.2449 30.4968 27.2449C30.9023 27.2449 31.2421 27.0085 31.9858 26.2605C34.29 23.6895 35.916 19.7241 35.916 19.7241C36.1202 19.2517 36.4921 18.8215 37.3058 18.8215H40.5039Z" fill="black"/>
</svg>
