<svg width="55" height="55" viewBox="0 0 55 55" fill="none" xmlns="http://www.w3.org/2000/svg">
<path fill-rule="evenodd" clip-rule="evenodd" d="M55 0H0V55H55V0ZM40.504 18.8215C41.4694 18.8215 41.6735 19.3188 41.4694 19.9969C41.064 21.8621 37.1688 27.3483 37.1673 27.3469C36.8304 27.8894 36.6933 28.1592 37.1673 28.7702C37.3348 29.0038 37.6908 29.3526 38.0981 29.7517C38.5172 30.1623 38.9907 30.6262 39.3694 31.0729C40.7431 32.6173 41.7785 33.9225 42.0658 34.8194C42.3283 35.7206 41.8719 36.1771 40.959 36.1771H37.7623C36.9069 36.1771 36.4754 35.6971 35.5432 34.6604C35.1484 34.2213 34.6636 33.6822 34.0187 33.0373C32.1215 31.21 31.3077 30.9708 30.8352 30.9708C30.1921 30.9708 29.9981 31.1546 29.9981 32.0675V34.9346C29.9981 35.7221 29.7473 36.1785 27.7158 36.1785C24.3267 36.1785 20.6065 34.1223 17.964 30.3292C14.0002 24.7744 12.9167 20.5744 12.9167 19.7256C12.9167 19.2531 13.099 18.8229 14.0133 18.8229H17.21C18.0267 18.8229 18.3344 19.1802 18.6392 20.0654C20.204 24.6213 22.8406 28.601 23.9242 28.601C24.3325 28.601 24.5177 28.4129 24.5177 27.3819V22.6744C24.4446 21.3322 23.9761 20.7522 23.6292 20.3227C23.4152 20.0578 23.2475 19.8502 23.2475 19.5565C23.2475 19.1977 23.5538 18.8215 24.0613 18.8215H29.0867C29.7648 18.8215 29.9996 19.1831 29.9996 19.9969V26.3304C29.9996 27.0085 30.2942 27.2448 30.4969 27.2448C30.9023 27.2448 31.2421 27.0085 31.9858 26.2604C34.29 23.6894 35.916 19.7242 35.916 19.7242C36.1202 19.2517 36.4921 18.8215 37.3058 18.8215H40.504Z" fill="#3AAFA9"/>
</svg>
